# MagicaVoxel @ Ephtracy

# group
o 

# material
mtllib TowerHead.mtl
usemtl palette

# normals
vn -1 0 0
vn 1 0 0
vn 0 0 1
vn 0 0 -1
vn 0 -1 0
vn 0 1 0

# texcoords
vt 0.939453 0.5
vt 0.970703 0.5
vt 0.974609 0.5
vt 0.978516 0.5
vt 0.982422 0.5
vt 0.986328 0.5
vt 0.990234 0.5
vt 0.994141 0.5

# verts
v -1.3 2 1
v -1.3 2 -1
v -1.3 2.2 1
v -1.3 2.2 -1
v -1.3 2.3 1
v -1.3 2.3 -1
v -1.3 2.7 1
v -1.3 2.7 -1
v -1.3 2.8 1
v -1.3 2.8 -1
v -1.3 3 1
v -1.3 3 -1
v -1 2 1.3
v -1 2 1
v -1 2 -1
v -1 2 -1.3
v -1 2.1 1.3
v -1 2.1 1
v -1 2.1 -1
v -1 2.1 -1.3
v -1 2.9 1.3
v -1 2.9 1
v -1 2.9 -1
v -1 2.9 -1.3
v -1 3 1.3
v -1 3 1
v -1 3 -1
v -1 3 -1.3
v -0.5 2.3 1.9
v -0.5 2.3 1.3
v -0.5 2.7 1.9
v -0.5 2.7 1.3
v -0.3 2.1 1.9
v -0.3 2.1 1.3
v -0.3 2.3 1.9
v -0.3 2.3 1.3
v -0.3 2.7 1.9
v -0.3 2.7 1.3
v -0.3 2.9 1.9
v -0.3 2.9 1.3
v 0.2 2.2 1.9
v 0.2 2.2 1.3
v 0.2 2.2 0
v 0.2 2.3 1.9
v 0.2 2.3 1.3
v 0.2 2.3 0
v 0.2 2.7 1.9
v 0.2 2.7 1.3
v 0.2 2.7 0
v 0.2 2.8 1.9
v 0.2 2.8 1.3
v 0.2 2.8 0
v 0.3 2.3 1.9
v 0.3 2.3 1.3
v 0.3 2.3 0
v 0.3 2.4 1.9
v 0.3 2.4 1.3
v 0.3 2.4 0
v 0.3 2.6 1.9
v 0.3 2.6 1.3
v 0.3 2.6 0
v 0.3 2.7 1.9
v 0.3 2.7 1.3
v 0.3 2.7 0
v 0.4 2.4 1.9
v 0.4 2.4 1.3
v 0.4 2.4 0
v 0.4 2.6 1.9
v 0.4 2.6 1.3
v 0.4 2.6 0
v -0.4 2.4 1.9
v -0.4 2.4 1.3
v -0.4 2.4 0
v -0.4 2.6 1.9
v -0.4 2.6 1.3
v -0.4 2.6 0
v -0.3 2.3 1.9
v -0.3 2.3 1.3
v -0.3 2.3 0
v -0.3 2.4 1.9
v -0.3 2.4 1.3
v -0.3 2.4 0
v -0.3 2.6 1.9
v -0.3 2.6 1.3
v -0.3 2.6 0
v -0.3 2.7 1.9
v -0.3 2.7 1.3
v -0.3 2.7 0
v -0.2 2.2 1.9
v -0.2 2.2 1.3
v -0.2 2.2 0
v -0.2 2.3 1.9
v -0.2 2.3 1.3
v -0.2 2.3 0
v -0.2 2.7 1.9
v -0.2 2.7 1.3
v -0.2 2.7 0
v -0.2 2.8 1.9
v -0.2 2.8 1.3
v -0.2 2.8 0
v 0.3 2.1 1.9
v 0.3 2.1 1.3
v 0.3 2.3 1.9
v 0.3 2.3 1.3
v 0.3 2.7 1.9
v 0.3 2.7 1.3
v 0.3 2.9 1.9
v 0.3 2.9 1.3
v 0.5 2.3 1.9
v 0.5 2.3 1.3
v 0.5 2.7 1.9
v 0.5 2.7 1.3
v 1 2 1.3
v 1 2 1
v 1 2 -1
v 1 2 -1.3
v 1 2.1 1.3
v 1 2.1 1
v 1 2.1 -1
v 1 2.1 -1.3
v 1 2.9 1.3
v 1 2.9 1
v 1 2.9 -1
v 1 2.9 -1.3
v 1 3 1.3
v 1 3 1
v 1 3 -1
v 1 3 -1.3
v 1.3 2 1
v 1.3 2 -1
v 1.3 2.7 1
v 1.3 2.7 -1
v 1.3 2.8 1
v 1.3 2.8 -1
v 1.3 3 1
v 1.3 3 -1
v -0.5 2.3 1.9
v -0.5 2.7 1.9
v -0.4 2.4 1.9
v -0.4 2.6 1.9
v -0.3 2.1 1.9
v -0.3 2.3 1.9
v -0.3 2.4 1.9
v -0.3 2.6 1.9
v -0.3 2.7 1.9
v -0.3 2.9 1.9
v -0.2 2.2 1.9
v -0.2 2.3 1.9
v -0.2 2.7 1.9
v -0.2 2.8 1.9
v 0.2 2.2 1.9
v 0.2 2.3 1.9
v 0.2 2.7 1.9
v 0.2 2.8 1.9
v 0.3 2.1 1.9
v 0.3 2.3 1.9
v 0.3 2.4 1.9
v 0.3 2.6 1.9
v 0.3 2.7 1.9
v 0.3 2.9 1.9
v 0.4 2.4 1.9
v 0.4 2.6 1.9
v 0.5 2.3 1.9
v 0.5 2.7 1.9
v -1 2 1.3
v -1 2.1 1.3
v -1 2.9 1.3
v -1 3 1.3
v -0.8 2 1.3
v -0.8 2.1 1.3
v -0.8 2.9 1.3
v -0.8 3 1.3
v -0.6 2.8 1.3
v -0.6 2.9 1.3
v -0.5 2.3 1.3
v -0.5 2.7 1.3
v -0.5 2.8 1.3
v -0.5 2.9 1.3
v -0.3 2.1 1.3
v -0.3 2.3 1.3
v -0.3 2.7 1.3
v -0.3 2.9 1.3
v 0.3 2.1 1.3
v 0.3 2.3 1.3
v 0.3 2.7 1.3
v 0.3 2.9 1.3
v 0.5 2.3 1.3
v 0.5 2.7 1.3
v 0.8 2 1.3
v 0.8 2.1 1.3
v 0.8 2.9 1.3
v 0.8 3 1.3
v 1 2 1.3
v 1 2.1 1.3
v 1 2.9 1.3
v 1 3 1.3
v -1.3 2 1
v -1.3 2.2 1
v -1.3 2.3 1
v -1.3 2.7 1
v -1.3 2.8 1
v -1.3 3 1
v -1.2 2.2 1
v -1.2 2.3 1
v -1.2 2.7 1
v -1.2 2.8 1
v -1 2 1
v -1 2.1 1
v -1 2.9 1
v -1 3 1
v 1 2 1
v 1 2.1 1
v 1 2.9 1
v 1 3 1
v 1.2 2.7 1
v 1.2 2.8 1
v 1.3 2 1
v 1.3 2.7 1
v 1.3 2.8 1
v 1.3 3 1
v -0.4 2.4 0
v -0.4 2.6 0
v -0.3 2.3 0
v -0.3 2.4 0
v -0.3 2.6 0
v -0.3 2.7 0
v -0.2 2.2 0
v -0.2 2.3 0
v -0.2 2.7 0
v -0.2 2.8 0
v 0.2 2.2 0
v 0.2 2.3 0
v 0.2 2.7 0
v 0.2 2.8 0
v 0.3 2.3 0
v 0.3 2.4 0
v 0.3 2.6 0
v 0.3 2.7 0
v 0.4 2.4 0
v 0.4 2.6 0
v -1.3 2 -1
v -1.3 2.2 -1
v -1.3 2.3 -1
v -1.3 2.7 -1
v -1.3 2.8 -1
v -1.3 3 -1
v -1.2 2.2 -1
v -1.2 2.3 -1
v -1.2 2.7 -1
v -1.2 2.8 -1
v -1 2 -1
v -1 2.1 -1
v -1 2.9 -1
v -1 3 -1
v 1 2 -1
v 1 2.1 -1
v 1 2.9 -1
v 1 3 -1
v 1.2 2.7 -1
v 1.2 2.8 -1
v 1.3 2 -1
v 1.3 2.7 -1
v 1.3 2.8 -1
v 1.3 3 -1
v -1 2 -1.3
v -1 2.1 -1.3
v -1 2.9 -1.3
v -1 3 -1.3
v -0.8 2 -1.3
v -0.8 2.1 -1.3
v -0.8 2.9 -1.3
v -0.8 3 -1.3
v 0.8 2 -1.3
v 0.8 2.1 -1.3
v 0.8 2.9 -1.3
v 0.8 3 -1.3
v 1 2 -1.3
v 1 2.1 -1.3
v 1 2.9 -1.3
v 1 3 -1.3
v -1 2 1.3
v -0.8 2 1.3
v 0.8 2 1.3
v 1 2 1.3
v -1.3 2 1
v -1 2 1
v 1 2 1
v 1.3 2 1
v -1.3 2 -1
v -1 2 -1
v 1 2 -1
v 1.3 2 -1
v -1 2 -1.3
v -0.8 2 -1.3
v 0.8 2 -1.3
v 1 2 -1.3
v -0.3 2.1 1.9
v 0.3 2.1 1.9
v -0.3 2.1 1.3
v 0.3 2.1 1.3
v -0.5 2.3 1.9
v -0.3 2.3 1.9
v 0.3 2.3 1.9
v 0.5 2.3 1.9
v -0.5 2.3 1.3
v -0.3 2.3 1.3
v 0.3 2.3 1.3
v 0.5 2.3 1.3
v -0.4 2.6 1.9
v -0.3 2.6 1.9
v 0.3 2.6 1.9
v 0.4 2.6 1.9
v -0.4 2.6 1.3
v -0.3 2.6 1.3
v 0.3 2.6 1.3
v 0.4 2.6 1.3
v -0.4 2.6 0
v -0.3 2.6 0
v 0.3 2.6 0
v 0.4 2.6 0
v -0.3 2.7 1.9
v -0.2 2.7 1.9
v 0.2 2.7 1.9
v 0.3 2.7 1.9
v -0.3 2.7 1.3
v -0.2 2.7 1.3
v 0.2 2.7 1.3
v 0.3 2.7 1.3
v -0.3 2.7 0
v -0.2 2.7 0
v 0.2 2.7 0
v 0.3 2.7 0
v -0.2 2.8 1.9
v 0.2 2.8 1.9
v -0.2 2.8 1.3
v 0.2 2.8 1.3
v -0.2 2.8 0
v 0.2 2.8 0
v -0.2 2.2 1.9
v 0.2 2.2 1.9
v -0.2 2.2 1.3
v 0.2 2.2 1.3
v -0.2 2.2 0
v 0.2 2.2 0
v -0.3 2.3 1.9
v -0.2 2.3 1.9
v 0.2 2.3 1.9
v 0.3 2.3 1.9
v -0.3 2.3 1.3
v -0.2 2.3 1.3
v 0.2 2.3 1.3
v 0.3 2.3 1.3
v -0.3 2.3 0
v -0.2 2.3 0
v 0.2 2.3 0
v 0.3 2.3 0
v -0.4 2.4 1.9
v -0.3 2.4 1.9
v 0.3 2.4 1.9
v 0.4 2.4 1.9
v -0.4 2.4 1.3
v -0.3 2.4 1.3
v 0.3 2.4 1.3
v 0.4 2.4 1.3
v -0.4 2.4 0
v -0.3 2.4 0
v 0.3 2.4 0
v 0.4 2.4 0
v -0.5 2.7 1.9
v -0.3 2.7 1.9
v 0.3 2.7 1.9
v 0.5 2.7 1.9
v -0.5 2.7 1.3
v -0.3 2.7 1.3
v 0.3 2.7 1.3
v 0.5 2.7 1.3
v -0.3 2.9 1.9
v 0.3 2.9 1.9
v -0.3 2.9 1.3
v 0.3 2.9 1.3
v -1 3 1.3
v -0.8 3 1.3
v 0.8 3 1.3
v 1 3 1.3
v -1.3 3 1
v -1 3 1
v 1 3 1
v 1.3 3 1
v -0.2 3 0.5
v 0.2 3 0.5
v -0.2 3 0.4
v 0.0999999 3 0.4
v -0.2 3 0.3
v 0.0999999 3 0.3
v -0.1 3 0.2
v 0.2 3 0.2
v -0.1 3 0.1
v 0.2 3 0.1
v -0.2 3 0
v 0.2 3 0
v -0.2 3 -0.1
v 0.0999999 3 -0.1
v -0.1 3 -0.2
v 0.0999999 3 -0.2
v 0.2 3 -0.2
v -1.19209e-07 3 -0.4
v 0.0999999 3 -0.4
v -0.1 3 -0.5
v -1.19209e-07 3 -0.5
v 0.0999999 3 -0.5
v 0.2 3 -0.5
v -0.2 3 -0.6
v 0.0999999 3 -0.6
v -0.2 3 -0.7
v -0.1 3 -0.7
v 0.0999999 3 -0.7
v 0.2 3 -0.7
v -0.1 3 -0.8
v 0.0999999 3 -0.8
v -0.1 3 -0.9
v 0.0999999 3 -0.9
v -1.3 3 -1
v -1 3 -1
v 1 3 -1
v 1.3 3 -1
v -0.1 3 -1.1
v 0.0999999 3 -1.1
v -0.2 3 -1.2
v 0.2 3 -1.2
v -1 3 -1.3
v -0.8 3 -1.3
v 0.8 3 -1.3
v 1 3 -1.3

# faces
f 3/8/1 2/8/1 1/8/1
f 4/8/1 2/8/1 3/8/1
f 5/7/1 4/7/1 3/7/1
f 6/7/1 4/7/1 5/7/1
f 7/8/1 6/8/1 5/8/1
f 8/8/1 6/8/1 7/8/1
f 9/7/1 8/7/1 7/7/1
f 10/7/1 8/7/1 9/7/1
f 11/8/1 10/8/1 9/8/1
f 12/8/1 10/8/1 11/8/1
f 17/5/1 14/5/1 13/5/1
f 18/5/1 14/5/1 17/5/1
f 19/5/1 16/5/1 15/5/1
f 20/5/1 16/5/1 19/5/1
f 21/2/1 18/2/1 17/2/1
f 22/2/1 18/2/1 21/2/1
f 23/2/1 20/2/1 19/2/1
f 24/2/1 20/2/1 23/2/1
f 25/5/1 22/5/1 21/5/1
f 26/5/1 22/5/1 25/5/1
f 27/5/1 24/5/1 23/5/1
f 28/5/1 24/5/1 27/5/1
f 31/3/1 30/3/1 29/3/1
f 32/3/1 30/3/1 31/3/1
f 35/3/1 34/3/1 33/3/1
f 36/3/1 34/3/1 35/3/1
f 39/3/1 38/3/1 37/3/1
f 40/3/1 38/3/1 39/3/1
f 44/3/1 42/3/1 41/3/1
f 45/4/1 43/4/1 42/4/1
f 45/3/1 42/3/1 44/3/1
f 46/4/1 43/4/1 45/4/1
f 50/3/1 48/3/1 47/3/1
f 51/4/1 49/4/1 48/4/1
f 51/3/1 48/3/1 50/3/1
f 52/4/1 49/4/1 51/4/1
f 56/3/1 54/3/1 53/3/1
f 57/4/1 55/4/1 54/4/1
f 57/3/1 54/3/1 56/3/1
f 58/4/1 55/4/1 57/4/1
f 62/3/1 60/3/1 59/3/1
f 63/4/1 61/4/1 60/4/1
f 63/3/1 60/3/1 62/3/1
f 64/4/1 61/4/1 63/4/1
f 68/3/1 66/3/1 65/3/1
f 69/4/1 67/4/1 66/4/1
f 69/3/1 66/3/1 68/3/1
f 70/4/1 67/4/1 69/4/1
f 71/3/2 72/3/2 74/3/2
f 72/4/2 73/4/2 75/4/2
f 74/3/2 72/3/2 75/3/2
f 75/4/2 73/4/2 76/4/2
f 77/3/2 78/3/2 80/3/2
f 78/4/2 79/4/2 81/4/2
f 80/3/2 78/3/2 81/3/2
f 81/4/2 79/4/2 82/4/2
f 83/3/2 84/3/2 86/3/2
f 84/4/2 85/4/2 87/4/2
f 86/3/2 84/3/2 87/3/2
f 87/4/2 85/4/2 88/4/2
f 89/3/2 90/3/2 92/3/2
f 90/4/2 91/4/2 93/4/2
f 92/3/2 90/3/2 93/3/2
f 93/4/2 91/4/2 94/4/2
f 95/3/2 96/3/2 98/3/2
f 96/4/2 97/4/2 99/4/2
f 98/3/2 96/3/2 99/3/2
f 99/4/2 97/4/2 100/4/2
f 101/3/2 102/3/2 103/3/2
f 103/3/2 102/3/2 104/3/2
f 105/3/2 106/3/2 107/3/2
f 107/3/2 106/3/2 108/3/2
f 109/3/2 110/3/2 111/3/2
f 111/3/2 110/3/2 112/3/2
f 113/5/2 114/5/2 117/5/2
f 117/5/2 114/5/2 118/5/2
f 115/5/2 116/5/2 119/5/2
f 119/5/2 116/5/2 120/5/2
f 117/2/2 118/2/2 121/2/2
f 121/2/2 118/2/2 122/2/2
f 119/2/2 120/2/2 123/2/2
f 123/2/2 120/2/2 124/2/2
f 121/5/2 122/5/2 125/5/2
f 125/5/2 122/5/2 126/5/2
f 123/5/2 124/5/2 127/5/2
f 127/5/2 124/5/2 128/5/2
f 129/8/2 130/8/2 131/8/2
f 131/8/2 130/8/2 132/8/2
f 131/7/2 132/7/2 133/7/2
f 133/7/2 132/7/2 134/7/2
f 133/8/2 134/8/2 135/8/2
f 135/8/2 134/8/2 136/8/2
f 139/3/3 138/3/3 137/3/3
f 140/3/3 138/3/3 139/3/3
f 142/3/3 139/3/3 137/3/3
f 143/3/3 139/3/3 142/3/3
f 144/3/3 138/3/3 140/3/3
f 145/3/3 138/3/3 144/3/3
f 147/3/3 142/3/3 141/3/3
f 148/3/3 142/3/3 147/3/3
f 149/3/3 146/3/3 145/3/3
f 150/3/3 146/3/3 149/3/3
f 151/3/3 147/3/3 141/3/3
f 154/3/3 146/3/3 150/3/3
f 155/3/3 152/3/3 151/3/3
f 155/3/3 151/3/3 141/3/3
f 156/3/3 152/3/3 155/3/3
f 159/3/3 154/3/3 153/3/3
f 160/3/3 146/3/3 154/3/3
f 160/3/3 154/3/3 159/3/3
f 161/3/3 157/3/3 156/3/3
f 162/3/3 159/3/3 158/3/3
f 163/3/3 161/3/3 156/3/3
f 163/3/3 162/3/3 161/3/3
f 164/3/3 159/3/3 162/3/3
f 164/3/3 162/3/3 163/3/3
f 169/5/3 166/5/3 165/5/3
f 170/2/3 167/2/3 166/2/3
f 170/5/3 166/5/3 169/5/3
f 171/5/3 168/5/3 167/5/3
f 171/2/3 167/2/3 170/2/3
f 172/5/3 168/5/3 171/5/3
f 173/2/3 170/2/3 169/2/3
f 173/2/3 171/2/3 170/2/3
f 173/2/3 172/2/3 171/2/3
f 174/2/3 172/2/3 173/2/3
f 175/2/3 173/2/3 169/2/3
f 176/2/3 173/2/3 175/2/3
f 177/1/3 174/1/3 173/1/3
f 177/2/3 173/2/3 176/2/3
f 178/2/3 172/2/3 174/2/3
f 178/1/3 174/1/3 177/1/3
f 179/2/3 175/2/3 169/2/3
f 180/2/3 175/2/3 179/2/3
f 181/2/3 177/2/3 176/2/3
f 181/2/3 178/2/3 177/2/3
f 182/2/3 172/2/3 178/2/3
f 182/2/3 178/2/3 181/2/3
f 183/2/3 179/2/3 169/2/3
f 186/2/3 172/2/3 182/2/3
f 187/2/3 184/2/3 183/2/3
f 188/2/3 186/2/3 185/2/3
f 189/2/3 187/2/3 183/2/3
f 189/2/3 188/2/3 187/2/3
f 189/2/3 183/2/3 169/2/3
f 190/2/3 188/2/3 189/2/3
f 191/2/3 186/2/3 188/2/3
f 191/2/3 188/2/3 190/2/3
f 191/2/3 172/2/3 186/2/3
f 192/2/3 172/2/3 191/2/3
f 193/5/3 190/5/3 189/5/3
f 194/2/3 191/2/3 190/2/3
f 194/5/3 190/5/3 193/5/3
f 195/5/3 192/5/3 191/5/3
f 195/2/3 191/2/3 194/2/3
f 196/5/3 192/5/3 195/5/3
f 203/8/3 198/8/3 197/8/3
f 203/7/3 199/7/3 198/7/3
f 204/8/3 200/8/3 199/8/3
f 204/7/3 199/7/3 203/7/3
f 205/7/3 201/7/3 200/7/3
f 205/8/3 200/8/3 204/8/3
f 206/8/3 202/8/3 201/8/3
f 206/7/3 201/7/3 205/7/3
f 207/8/3 205/8/3 204/8/3
f 207/8/3 204/8/3 203/8/3
f 207/8/3 206/8/3 205/8/3
f 207/8/3 203/8/3 197/8/3
f 208/8/3 206/8/3 207/8/3
f 209/8/3 202/8/3 206/8/3
f 209/8/3 206/8/3 208/8/3
f 210/8/3 202/8/3 209/8/3
f 215/8/3 212/8/3 211/8/3
f 215/8/3 214/8/3 213/8/3
f 215/8/3 213/8/3 212/8/3
f 216/8/3 214/8/3 215/8/3
f 217/8/3 215/8/3 211/8/3
f 218/7/3 216/7/3 215/7/3
f 218/8/3 215/8/3 217/8/3
f 219/8/3 214/8/3 216/8/3
f 219/7/3 216/7/3 218/7/3
f 220/8/3 214/8/3 219/8/3
f 224/4/3 222/4/3 221/4/3
f 225/4/3 222/4/3 224/4/3
f 228/4/3 224/4/3 223/4/3
f 228/4/3 226/4/3 225/4/3
f 228/4/3 225/4/3 224/4/3
f 229/4/3 226/4/3 228/4/3
f 231/4/3 228/4/3 227/4/3
f 231/4/3 230/4/3 229/4/3
f 231/4/3 229/4/3 228/4/3
f 232/4/3 230/4/3 231/4/3
f 233/4/3 230/4/3 232/4/3
f 234/4/3 230/4/3 233/4/3
f 235/4/3 233/4/3 232/4/3
f 236/4/3 233/4/3 235/4/3
f 237/4/3 233/4/3 236/4/3
f 238/4/3 233/4/3 237/4/3
f 239/4/3 237/4/3 236/4/3
f 240/4/3 237/4/3 239/4/3
f 241/8/4 242/8/4 247/8/4
f 242/7/4 243/7/4 247/7/4
f 243/8/4 244/8/4 248/8/4
f 247/7/4 243/7/4 248/7/4
f 244/7/4 245/7/4 249/7/4
f 248/8/4 244/8/4 249/8/4
f 245/8/4 246/8/4 250/8/4
f 249/7/4 245/7/4 250/7/4
f 248/8/4 249/8/4 251/8/4
f 247/8/4 248/8/4 251/8/4
f 249/8/4 250/8/4 251/8/4
f 241/8/4 247/8/4 251/8/4
f 251/8/4 250/8/4 252/8/4
f 250/8/4 246/8/4 253/8/4
f 252/8/4 250/8/4 253/8/4
f 253/8/4 246/8/4 254/8/4
f 255/8/4 256/8/4 259/8/4
f 257/8/4 258/8/4 259/8/4
f 256/8/4 257/8/4 259/8/4
f 259/8/4 258/8/4 260/8/4
f 255/8/4 259/8/4 261/8/4
f 259/7/4 260/7/4 262/7/4
f 261/8/4 259/8/4 262/8/4
f 260/8/4 258/8/4 263/8/4
f 262/7/4 260/7/4 263/7/4
f 263/8/4 258/8/4 264/8/4
f 265/5/4 266/5/4 269/5/4
f 266/2/4 267/2/4 270/2/4
f 269/5/4 266/5/4 270/5/4
f 267/5/4 268/5/4 271/5/4
f 270/2/4 267/2/4 271/2/4
f 271/5/4 268/5/4 272/5/4
f 269/2/4 270/2/4 273/2/4
f 270/2/4 271/2/4 273/2/4
f 271/2/4 272/2/4 273/2/4
f 273/2/4 272/2/4 274/2/4
f 274/2/4 272/2/4 275/2/4
f 275/2/4 272/2/4 276/2/4
f 273/5/4 274/5/4 277/5/4
f 274/2/4 275/2/4 278/2/4
f 277/5/4 274/5/4 278/5/4
f 275/5/4 276/5/4 279/5/4
f 278/2/4 275/2/4 279/2/4
f 279/5/4 276/5/4 280/5/4
f 286/5/5 282/5/5 281/5/5
f 287/5/5 284/5/5 283/5/5
f 289/8/5 286/8/5 285/8/5
f 290/5/5 282/5/5 286/5/5
f 290/8/5 286/8/5 289/8/5
f 291/8/5 288/8/5 287/8/5
f 291/5/5 287/5/5 283/5/5
f 292/8/5 288/8/5 291/8/5
f 293/5/5 282/5/5 290/5/5
f 294/2/5 283/2/5 282/2/5
f 294/5/5 282/5/5 293/5/5
f 295/5/5 291/5/5 283/5/5
f 295/2/5 283/2/5 294/2/5
f 296/5/5 291/5/5 295/5/5
f 299/3/5 298/3/5 297/3/5
f 300/3/5 298/3/5 299/3/5
f 305/3/5 302/3/5 301/3/5
f 306/3/5 302/3/5 305/3/5
f 307/3/5 304/3/5 303/3/5
f 308/3/5 304/3/5 307/3/5
f 313/3/5 310/3/5 309/3/5
f 314/3/5 310/3/5 313/3/5
f 315/3/5 312/3/5 311/3/5
f 316/3/5 312/3/5 315/3/5
f 317/4/5 314/4/5 313/4/5
f 318/4/5 314/4/5 317/4/5
f 319/4/5 316/4/5 315/4/5
f 320/4/5 316/4/5 319/4/5
f 325/3/5 322/3/5 321/3/5
f 326/3/5 322/3/5 325/3/5
f 327/3/5 324/3/5 323/3/5
f 328/3/5 324/3/5 327/3/5
f 329/4/5 326/4/5 325/4/5
f 330/4/5 326/4/5 329/4/5
f 331/4/5 328/4/5 327/4/5
f 332/4/5 328/4/5 331/4/5
f 335/3/5 334/3/5 333/3/5
f 336/3/5 334/3/5 335/3/5
f 337/4/5 336/4/5 335/4/5
f 338/4/5 336/4/5 337/4/5
f 339/3/6 340/3/6 341/3/6
f 341/3/6 340/3/6 342/3/6
f 341/4/6 342/4/6 343/4/6
f 343/4/6 342/4/6 344/4/6
f 345/3/6 346/3/6 349/3/6
f 349/3/6 346/3/6 350/3/6
f 347/3/6 348/3/6 351/3/6
f 351/3/6 348/3/6 352/3/6
f 349/4/6 350/4/6 353/4/6
f 353/4/6 350/4/6 354/4/6
f 351/4/6 352/4/6 355/4/6
f 355/4/6 352/4/6 356/4/6
f 357/3/6 358/3/6 361/3/6
f 361/3/6 358/3/6 362/3/6
f 359/3/6 360/3/6 363/3/6
f 363/3/6 360/3/6 364/3/6
f 361/4/6 362/4/6 365/4/6
f 365/4/6 362/4/6 366/4/6
f 363/4/6 364/4/6 367/4/6
f 367/4/6 364/4/6 368/4/6
f 369/3/6 370/3/6 373/3/6
f 373/3/6 370/3/6 374/3/6
f 371/3/6 372/3/6 375/3/6
f 375/3/6 372/3/6 376/3/6
f 377/3/6 378/3/6 379/3/6
f 379/3/6 378/3/6 380/3/6
f 381/5/6 382/5/6 386/5/6
f 383/5/6 384/5/6 387/5/6
f 382/2/6 383/2/6 389/2/6
f 389/2/6 383/2/6 390/2/6
f 382/2/6 389/2/6 391/2/6
f 389/6/6 390/6/6 391/6/6
f 391/6/6 390/6/6 392/6/6
f 382/2/6 391/2/6 393/2/6
f 391/2/6 392/2/6 393/2/6
f 392/6/6 390/6/6 394/6/6
f 393/2/6 392/2/6 394/2/6
f 393/6/6 394/6/6 395/6/6
f 390/2/6 383/2/6 396/2/6
f 395/6/6 394/6/6 396/6/6
f 394/6/6 390/6/6 396/6/6
f 393/6/6 395/6/6 397/6/6
f 395/2/6 396/2/6 397/2/6
f 396/2/6 383/2/6 398/2/6
f 397/2/6 396/2/6 398/2/6
f 393/6/6 397/6/6 399/6/6
f 382/2/6 393/2/6 399/2/6
f 397/6/6 398/6/6 399/6/6
f 398/2/6 383/2/6 400/2/6
f 399/6/6 398/6/6 400/6/6
f 382/2/6 399/2/6 401/2/6
f 399/2/6 400/2/6 401/2/6
f 401/2/6 400/2/6 402/2/6
f 401/6/6 402/6/6 403/6/6
f 402/2/6 400/2/6 404/2/6
f 403/6/6 402/6/6 404/6/6
f 400/2/6 383/2/6 405/2/6
f 404/2/6 400/2/6 405/2/6
f 403/2/6 404/2/6 406/2/6
f 404/6/6 405/6/6 407/6/6
f 406/2/6 404/2/6 407/2/6
f 401/6/6 403/6/6 408/6/6
f 403/2/6 406/2/6 408/2/6
f 406/4/6 407/4/6 409/4/6
f 408/2/6 406/2/6 409/2/6
f 407/6/6 405/6/6 410/6/6
f 409/4/6 407/4/6 410/4/6
f 405/2/6 383/2/6 411/2/6
f 410/6/6 405/6/6 411/6/6
f 409/6/6 410/6/6 412/6/6
f 382/2/6 401/2/6 412/2/6
f 408/6/6 409/6/6 412/6/6
f 401/6/6 408/6/6 412/6/6
f 410/2/6 411/2/6 413/2/6
f 412/6/6 410/6/6 413/6/6
f 382/2/6 412/2/6 414/2/6
f 412/2/6 413/2/6 414/2/6
f 414/2/6 413/2/6 415/2/6
f 413/2/6 411/2/6 416/2/6
f 415/2/6 413/2/6 416/2/6
f 411/2/6 383/2/6 417/2/6
f 416/2/6 411/2/6 417/2/6
f 415/2/6 416/2/6 418/2/6
f 414/6/6 415/6/6 418/6/6
f 416/6/6 417/6/6 419/6/6
f 418/2/6 416/2/6 419/2/6
f 414/6/6 418/6/6 420/6/6
f 418/6/6 419/6/6 420/6/6
f 419/6/6 417/6/6 421/6/6
f 420/6/6 419/6/6 421/6/6
f 385/8/6 386/8/6 422/8/6
f 386/5/6 382/5/6 423/5/6
f 422/8/6 386/8/6 423/8/6
f 387/8/6 388/8/6 424/8/6
f 383/5/6 387/5/6 424/5/6
f 424/8/6 388/8/6 425/8/6
f 414/6/6 420/6/6 426/6/6
f 420/2/6 421/2/6 426/2/6
f 421/6/6 417/6/6 427/6/6
f 426/2/6 421/2/6 427/2/6
f 414/6/6 426/6/6 428/6/6
f 382/2/6 414/2/6 428/2/6
f 426/6/6 427/6/6 428/6/6
f 427/6/6 417/6/6 429/6/6
f 428/6/6 427/6/6 429/6/6
f 417/2/6 383/2/6 429/2/6
f 423/5/6 382/5/6 430/5/6
f 382/2/6 428/2/6 431/2/6
f 430/5/6 382/5/6 431/5/6
f 428/2/6 429/2/6 431/2/6
f 429/2/6 383/2/6 432/2/6
f 431/2/6 429/2/6 432/2/6
f 383/5/6 424/5/6 432/5/6
f 432/5/6 424/5/6 433/5/6
